<svg width="90" height="81" viewBox="0 0 90 81" fill="none" xmlns="http://www.w3.org/2000/svg">
<g clip-path="url(#clip0_11_180)">
<path d="M6.80412 68.7634L10.7732 75.6037C11.5979 77.0438 12.7835 78.1753 14.1753 78.9982L28.3505 54.517H0C0 56.1113 0.412371 57.7057 1.23711 59.1458L6.80412 68.7634Z" fill="#0066DA"/>
<path d="M45 25.7156L30.8247 1.23438C29.433 2.05727 28.2474 3.18876 27.4227 4.62883L1.23711 49.8882C0.427539 51.2972 0.0010779 52.8929 0 54.517H28.3505L45 25.7156Z" fill="#00AC47"/>
<path d="M75.8248 78.9982C77.2165 78.1753 78.4021 77.0438 79.2268 75.6037L80.8763 72.775L88.7629 59.1458C89.5877 57.7057 90 56.1113 90 54.517H61.6475L67.6805 66.3461L75.8248 78.9982Z" fill="#EA4335"/>
<path d="M45 25.7156L59.1752 1.23435C57.7835 0.411449 56.1855 0 54.536 0H35.4639C33.8144 0 32.2165 0.46288 30.8247 1.23435L45 25.7156Z" fill="#00832D"/>
<path d="M61.6495 54.517H28.3505L14.1753 78.9982C15.567 79.8211 17.165 80.2325 18.8145 80.2325H71.1856C72.8351 80.2325 74.433 79.7697 75.8248 78.9982L61.6495 54.517Z" fill="#2684FC"/>
<path d="M75.6701 27.2585L62.5773 4.62883C61.7526 3.18876 60.567 2.05727 59.1753 1.23438L45 25.7156L61.6495 54.517H89.9484C89.9484 52.9227 89.5361 51.3283 88.7113 49.8882L75.6701 27.2585Z" fill="#FFBA00"/>
</g>
<defs>
<clipPath id="clip0_11_180">
<rect width="90" height="80.2326" fill="white"/>
</clipPath>
</defs>
</svg>
