<svg width="123" height="79" viewBox="0 0 123 79" fill="none" xmlns="http://www.w3.org/2000/svg">
<g clip-path="url(#clip0_11_181)">
<path d="M46.9033 21.9386L46.9044 21.9343L72.7254 37.4406L88.1117 30.9491C91.2382 29.594 94.6095 28.8991 98.0157 28.9024C98.5832 28.9024 99.1442 28.9283 99.7023 28.9656C97.8524 21.7339 93.9473 15.1965 88.4615 10.1479C82.9758 5.09936 76.1455 1.75691 68.8007 0.526779C61.4559 -0.703352 53.9129 0.231791 47.0882 3.21857C40.2636 6.20535 34.4511 11.1152 30.3572 17.3514C30.4887 17.3497 30.6182 17.3415 30.7501 17.3415C36.4567 17.3337 42.0518 18.926 46.9033 21.9386Z" fill="#0364B8"/>
<path d="M46.9044 21.9343L46.9032 21.9386C42.0517 18.926 36.4566 17.3337 30.75 17.3415C30.6182 17.3415 30.4884 17.3497 30.357 17.3514C24.7717 17.4207 19.3108 19.0147 14.5611 21.9619C9.81146 24.9091 5.95262 29.0983 3.3993 34.0791C0.845977 39.0599 -0.30531 44.6442 0.069161 50.2318C0.443632 55.8194 2.3297 61.199 5.52469 65.7926L28.2951 56.1858L38.4173 51.9152L60.9552 42.4064L72.7253 37.4406L46.9044 21.9343Z" fill="#0078D4"/>
<path d="M99.7022 28.9656C99.1441 28.9283 98.5831 28.9025 98.0156 28.9025C94.6095 28.8991 91.2388 29.5966 88.1123 30.9518L72.7253 37.4407L77.1871 40.1201L91.8123 48.903L98.1932 52.735L120.012 65.8377C121.994 62.1478 123.022 58.0183 123 53.8272C122.978 49.6361 121.907 45.5176 119.887 41.8487C117.866 38.1798 114.959 35.078 111.433 32.8272C107.906 30.5764 103.873 29.2487 99.7022 28.9656Z" fill="#1490DF"/>
<path d="M98.1931 52.7348L91.8122 48.9029L77.187 40.12L72.7253 37.4406L60.9552 42.4064L38.4172 51.9151L28.295 56.1857L5.52466 65.7926C8.35429 69.8713 12.1265 73.2029 16.5191 75.5028C20.9118 77.8027 25.7944 79.0025 30.7499 78.9999H98.0155C102.526 79.0013 106.952 77.7783 110.825 75.4609C114.697 73.1435 117.872 69.818 120.012 65.8375L98.1931 52.7348Z" fill="#28A8EA"/>
</g>
<defs>
<clipPath id="clip0_11_181">
<rect width="123" height="79" fill="white"/>
</clipPath>
</defs>
</svg>
