<svg width="743" height="622" viewBox="0 0 743 622" fill="none" xmlns="http://www.w3.org/2000/svg">
<path d="M152 517.5C57.0001 517.5 -59.4999 326.5 100 241.5C96.0001 190 159 30 325 96.5C386 -33.5 678.5 3.05176e-05 646 240.5C750 285.5 773 472 595 517.5H152Z" stroke="url(#paint0_linear_2_24)" stroke-width="20"/>
<path d="M430 343.586L504.144 385.449L576.458 426.278M430 343.586V508.55C430 512.11 431.893 515.402 434.971 517.193L576.458 599.51M430 343.586L576.458 426.278M430 343.586L571.368 260.974C574.509 259.139 578.398 259.154 581.524 261.013L610.326 278.138L722 342.294M576.458 599.51V426.278M576.458 599.51L717.109 515.916C720.141 514.113 722 510.847 722 507.319V342.294M576.458 426.278L643.737 387.456L722 342.294M576.458 426.278L722 342.294" stroke="#13F24B" stroke-width="15"/>
<defs>
<linearGradient id="paint0_linear_2_24" x1="373.839" y1="21.5139" x2="721" y2="596" gradientUnits="userSpaceOnUse">
<stop offset="0.184487" stop-color="#9538F2"/>
<stop offset="0.693946" stop-color="#AAAAAA" stop-opacity="0"/>
</linearGradient>
</defs>
</svg>
